<svg id="visual" viewBox="0 0 1440 1000" width="1440" height="1000" xmlns="http://www.w3.org/2000/svg" xmlns:xlink="http://www.w3.org/1999/xlink" version="1.1"><rect x="0" y="0" width="1440" height="1000" fill="#FFFFFF"></rect><path d="M0 431L60 467.8C120 504.7 240 578.3 360 570.7C480 563 600 474 720 492.8C840 511.7 960 638.3 1080 695.5C1200 752.7 1320 740.3 1380 734.2L1440 728L1440 1001L1380 1001C1320 1001 1200 1001 1080 1001C960 1001 840 1001 720 1001C600 1001 480 1001 360 1001C240 1001 120 1001 60 1001L0 1001Z" fill="#00252E" stroke-linecap="round" stroke-linejoin="miter"></path></svg>